# xmcd
#
# Track frame offsets:
#	150
#	18520
#	38807
#	60814
#	77909
#	95157
#	109145
#	125383
#	143067
#	162131
#	176940
#	191112
#	211215
#	226646
#	242924
#	266475
#	284270
#	304873
#	327469
#
# Disc length: 4630 seconds
#
# Revision: 3
# Processed by: cddbd v1.5.2PL0 Copyright (c) Steve Scherf et al.
# Submitted via: EasyCDDAExtractor 16.0.8.1
#
DISCID=0c121413
DTITLE=Various Artist - Ultimate Country Love Songs - CD'1
DYEAR=2005
DGENRE=Country
TTITLE0=Joe Nichols - The Impossible
TTITLE1=Trace Adkins - Then They Do
TTITLE2=Lee Ann Womack - I Hope You Dance
TTITLE3=Buddy Jewell - Help Pour Out The Rain
TTITLE4=LeAnn Rimes - On The Side Of Angels
TTITLE5=George Strait - Love Without End, Amen
TTITLE6=Tammy Cochran - Angels In Waiting
TTITLE7=Gary Allan - Tough Little Boys
TTITLE8=Jessica Andrews - Who I Am
TTITLE9=Billy Ray Cyrus - Busy Man
TTITLE10=Kenny Rogers - The Greatest
TTITLE11=Sherrie Austin - Streets Of Heaven
TTITLE12=Charlie Daniels - Little Folks Are People Too
TTITLE13=Mark Wills - Don't Laugh At Me
TTITLE14=Vince Gill - Go Rest High On That Mountain
TTITLE15=Deborah Allen - Deeper Waters
TTITLE16=Anita Cochran - Picture You In Heaven
TTITLE17=Deborah Allen, Anita Cochran and Tammy Cochran - Destiny's Song
TTITLE18=Julio Beltzer - Song Of Love
EXTD=
EXTT0=
EXTT1=
EXTT2=
EXTT3=
EXTT4=
EXTT5=
EXTT6=
EXTT7=
EXTT8=
EXTT9=
EXTT10=
EXTT11=
EXTT12=
EXTT13=
EXTT14=
EXTT15=
EXTT16=
EXTT17=
EXTT18=
PLAYORDER=
